HIERARCHY
ROOT Hips
{
	OFFSET 0.000000 0.000000 0.000000
	CHANNELS 6 Xposition Yposition Zposition Yrotation Zrotation Xrotation
	JOINT Spine
	{
		OFFSET 0.000000 0.000000 -0.744707
		CHANNELS 6 Xposition Yposition Zposition Yrotation Zrotation Xrotation
		JOINT Spine1
		{
			OFFSET 0.000000 0.000000 -2.032240
			CHANNELS 6 Xposition Yposition Zposition Yrotation Zrotation Xrotation
			JOINT Neck
			{
				OFFSET 0.000000 0.000000 -2.213880
				CHANNELS 6 Xposition Yposition Zposition Yrotation Zrotation Xrotation
				JOINT Head
				{
					OFFSET 0.000000 0.181636 -1.407680
					CHANNELS 6 Xposition Yposition Zposition Yrotation Zrotation Xrotation
					End Site
					{
						OFFSET 0.000000 0.000000 -1.816356
					}
				}
			}
			JOINT LeftShoulder
			{
				OFFSET 0.365767 -0.048012 -1.787590
				CHANNELS 6 Xposition Yposition Zposition Yrotation Zrotation Xrotation
				JOINT LeftArm
				{
					OFFSET 1.305160 0.000000 0.000000
					CHANNELS 6 Xposition Yposition Zposition Yrotation Zrotation Xrotation
					JOINT LeftForeArm
					{
						OFFSET 2.559210 0.000000 0.000000
						CHANNELS 6 Xposition Yposition Zposition Yrotation Zrotation Xrotation
						JOINT LeftHand
						{
							OFFSET 2.378450 0.000000 0.000000
							CHANNELS 6 Xposition Yposition Zposition Yrotation Zrotation Xrotation
							End Site
							{
								OFFSET 1.362267 0.000000 0.000000
							}
						}
					}
				}
			}
			JOINT RightShoulder
			{
				OFFSET -0.360721 -0.048012 -1.787590
				CHANNELS 6 Xposition Yposition Zposition Yrotation Zrotation Xrotation
				JOINT RightArm
				{
					OFFSET -1.305160 0.000000 0.000000
					CHANNELS 6 Xposition Yposition Zposition Yrotation Zrotation Xrotation
					JOINT RightForeArm
					{
						OFFSET -2.559210 0.000000 0.000000
						CHANNELS 6 Xposition Yposition Zposition Yrotation Zrotation Xrotation
						JOINT RightHand
						{
							OFFSET -2.378450 0.000000 0.000000
							CHANNELS 6 Xposition Yposition Zposition Yrotation Zrotation Xrotation
							End Site
							{
								OFFSET -1.362267 0.000000 0.000000
							}
						}
					}
				}
			}
		}
	}
	JOINT LeftUpLeg
	{
		OFFSET 0.908180 0.000000 0.000000
		CHANNELS 6 Xposition Yposition Zposition Yrotation Zrotation Xrotation
		JOINT LeftLeg
		{
			OFFSET 0.000000 -0.000003 3.819490
			CHANNELS 6 Xposition Yposition Zposition Yrotation Zrotation Xrotation
			JOINT LeftFoot
			{
				OFFSET 0.000000 -0.000003 4.004300
				CHANNELS 6 Xposition Yposition Zposition Yrotation Zrotation Xrotation
				JOINT LeftToeBase
				{
					OFFSET 0.000000 1.362270 0.590317
					CHANNELS 6 Xposition Yposition Zposition Yrotation Zrotation Xrotation
					End Site
					{
						OFFSET 0.000000 0.363271 0.000000
					}
				}
			}
		}
	}
	JOINT RightUpLeg
	{
		OFFSET -0.908180 0.000000 0.000000
		CHANNELS 6 Xposition Yposition Zposition Yrotation Zrotation Xrotation
		JOINT RightLeg
		{
			OFFSET 0.000000 -0.000003 3.819490
			CHANNELS 6 Xposition Yposition Zposition Yrotation Zrotation Xrotation
			JOINT RightFoot
			{
				OFFSET 0.000000 -0.000003 4.004300
				CHANNELS 6 Xposition Yposition Zposition Yrotation Zrotation Xrotation
				JOINT RightToeBase
				{
					OFFSET 0.000000 1.362270 0.590317
					CHANNELS 6 Xposition Yposition Zposition Yrotation Zrotation Xrotation
					End Site
					{
						OFFSET 0.000000 0.363271 0.000000
					}
				}
			}
		}
	}
}
MOTION
Frames: 5
Frame Time: 0.016667
-1.172897 1.838407 -7.610187 1.288273 0.395873 9.127490 -0.000000 -0.000000 -0.744706 -3.665205 3.403730 -17.651970 0.000000 0.000003 -2.032241 12.156549 1.576739 5.847946 0.000000 0.000001 -2.213884 1.482663 -3.121218 12.521036 0.000000 0.181636 -1.407679 -7.410039 -4.537662 1.176121 0.365767 -0.048012 -1.787591 20.948142 -2.779222 -8.128965 1.305162 -0.000000 -0.000003 -1.623304 12.738877 -9.556341 2.559211 -0.000000 0.000001 -2.217017 -0.438798 -5.884775 2.378450 0.000001 0.000001 -6.243123 -19.331339 -6.940244 -0.360721 -0.048011 -1.787591 -16.921025 5.478451 1.094721 -1.305160 -0.000000 -0.000002 16.867434 -20.779478 40.689329 -2.559210 0.000001 0.000001 -93.107903 -59.010539 -62.953840 -2.378452 -0.000000 -0.000000 -48.195782 11.482111 3.922385 0.908180 -0.000000 0.000001 13.002021 -15.189364 -18.407104 -0.000000 -0.000002 3.819490 -0.369229 -4.162645 22.699207 -0.000000 -0.000003 4.004301 -9.223296 -17.957331 -2.012995 -0.000000 1.362270 0.590317 0.000002 0.000006 0.000004 -0.908180 -0.000000 0.000001 -20.742882 5.085463 -22.326596 0.000001 -0.000003 3.819489 18.888705 -11.557082 31.042448 0.000001 -0.000002 4.004301 21.485752 45.704235 -22.891526 -0.000000 1.362269 0.590315 -0.000004 0.000001 0.000006 
-1.173770 1.838430 -7.610147 1.279594 0.402952 9.126818 0.000000 -0.000000 -0.744704 -3.659698 3.397789 -17.659869 -0.000000 0.000002 -2.032236 12.159735 1.575749 5.852898 0.000000 0.000000 -2.213880 1.510019 -3.170015 12.538545 -0.000000 0.181637 -1.407682 -7.420504 -4.590775 1.119168 0.365767 -0.048011 -1.787588 20.938216 -2.773163 -8.136521 1.305162 -0.000000 -0.000001 -1.618627 12.732854 -9.563703 2.559210 -0.000002 0.000000 -2.231394 -0.443654 -5.889454 2.378452 -0.000000 0.000002 -6.193100 -19.344916 -6.936971 -0.360721 -0.048011 -1.787587 -16.925868 5.470952 1.092843 -1.305161 -0.000000 0.000003 16.860015 -20.753919 40.749592 -2.559211 0.000001 0.000000 -93.141377 -58.938249 -62.955520 -2.378449 0.000001 0.000002 -48.191462 11.464128 3.867350 0.908180 -0.000000 0.000001 13.021223 -15.169270 -18.396326 -0.000000 -0.000002 3.819489 -0.363510 -4.184730 22.690781 -0.000001 -0.000001 4.004302 -9.270997 -17.964680 -2.017421 -0.000000 1.362270 0.590317 -0.000001 -0.000000 -0.000000 -0.908180 -0.000000 0.000002 -20.724471 5.087837 -22.326066 0.000001 -0.000003 3.819489 18.874919 -11.546868 31.034348 0.000002 -0.000001 4.004301 21.462456 45.684618 -22.876131 -0.000000 1.362270 0.590316 -0.000000 0.000002 0.000004 
-1.174628 1.838608 -7.609982 1.279428 0.402779 9.119696 -0.000000 -0.000000 -0.744707 -3.661672 3.397976 -17.655436 0.000000 0.000000 -2.032241 12.162794 1.575566 5.849426 -0.000000 0.000000 -2.213879 1.531409 -3.227794 12.536691 -0.000000 0.181637 -1.407684 -7.406445 -4.650200 1.093333 0.365767 -0.048012 -1.787591 20.923665 -2.769938 -8.144237 1.305161 -0.000000 -0.000003 -1.613041 12.727652 -9.536290 2.559211 -0.000001 -0.000004 -2.238015 -0.443390 -5.897063 2.378449 0.000000 0.000002 -6.193098 -19.349721 -6.944830 -0.360722 -0.048012 -1.787589 -16.931204 5.476754 1.106326 -1.305161 -0.000000 -0.000002 16.843573 -20.756808 40.744862 -2.559210 0.000001 0.000002 -93.166266 -58.927163 -62.983770 -2.378450 0.000001 0.000000 -48.200560 11.504573 3.869011 0.908180 -0.000000 -0.000000 13.031996 -15.147092 -18.384393 -0.000000 -0.000002 3.819490 -0.368489 -4.170041 22.682619 -0.000001 -0.000002 4.004299 -9.233354 -17.995621 -2.011789 -0.000000 1.362270 0.590317 -0.000001 0.000006 -0.000001 -0.908180 -0.000000 -0.000001 -20.712518 5.107468 -22.320314 -0.000001 -0.000003 3.819489 18.889199 -11.583797 31.049435 0.000001 -0.000001 4.004298 21.430953 45.697097 -22.874819 -0.000000 1.362270 0.590317 0.000000 0.000005 0.000005 
-1.175332 1.838418 -7.609899 1.268861 0.412013 9.119196 0.000000 0.000000 -0.744708 -3.650038 3.389766 -17.660141 0.000000 0.000000 -2.032238 12.162140 1.573942 5.854196 -0.000000 0.000000 -2.213878 1.550085 -3.277904 12.538462 0.000000 0.181636 -1.407676 -7.398369 -4.701533 1.059878 0.365767 -0.048012 -1.787590 20.926383 -2.777636 -8.149381 1.305160 0.000000 0.000001 -1.632481 12.729985 -9.506794 2.559212 -0.000001 -0.000002 -2.232529 -0.439102 -5.906626 2.378449 0.000000 0.000002 -6.200883 -19.360361 -6.956419 -0.360721 -0.048012 -1.787588 -16.945646 5.472363 1.100987 -1.305161 0.000001 -0.000000 16.844153 -20.744960 40.725986 -2.559209 -0.000001 -0.000001 -93.184558 -58.946069 -63.009526 -2.378450 0.000000 0.000002 -48.207154 11.517375 3.885279 0.908180 -0.000000 0.000000 13.053280 -15.110332 -18.373626 -0.000000 -0.000002 3.819490 -0.354653 -4.208676 22.670255 -0.000000 -0.000002 4.004301 -9.239018 -18.000216 -2.013466 0.000000 1.362270 0.590317 0.000002 -0.000007 0.000003 -0.908180 -0.000000 -0.000001 -20.696744 5.104155 -22.336773 0.000001 -0.000002 3.819490 18.909601 -11.602544 31.073768 0.000001 -0.000001 4.004301 21.454492 45.714835 -22.894418 0.000000 1.362268 0.590317 -0.000000 0.000003 0.000000 
-1.176150 1.838444 -7.609684 1.272476 0.411410 9.111219 0.000000 0.000000 -0.744707 -3.656855 3.388388 -17.658735 -0.000000 0.000001 -2.032236 12.162545 1.573566 5.857604 0.000000 0.000000 -2.213879 1.574237 -3.317047 12.552775 -0.000000 0.181636 -1.407679 -7.400287 -4.743586 1.011656 0.365767 -0.048012 -1.787588 20.920314 -2.781169 -8.141385 1.305162 0.000000 -0.000003 -1.626831 12.742808 -9.525647 2.559210 0.000000 -0.000001 -2.236515 -0.450714 -5.897571 2.378448 0.000001 0.000002 -6.190743 -19.352042 -6.944941 -0.360721 -0.048012 -1.787589 -16.955417 5.466319 1.096823 -1.305160 0.000001 -0.000000 16.843385 -20.722519 40.693543 -2.559211 0.000001 0.000004 -93.210389 -58.973479 -63.030734 -2.378449 0.000000 0.000002 -48.166743 11.520627 3.911687 0.908180 0.000000 0.000001 13.015052 -15.161632 -18.375219 -0.000000 -0.000002 3.819490 -0.287985 -4.198408 22.667820 -0.000001 -0.000002 4.004300 -9.256778 -17.937026 -1.997703 -0.000000 1.362270 0.590316 0.000001 -0.000002 -0.000002 -0.908180 0.000000 -0.000000 -20.693948 5.120424 -22.339462 0.000000 -0.000001 3.819489 18.915826 -11.595382 31.096250 0.000000 -0.000001 4.004302 21.455149 45.697534 -22.904792 -0.000001 1.362269 0.590315 -0.000001 -0.000000 0.000004 
